<?xml version="1.0" standalone="no"?>
<!DOCTYPE svg PUBLIC "-//W3C//DTD SVG 20010904//EN"
 "http://www.w3.org/TR/2001/REC-SVG-20010904/DTD/svg10.dtd">
<svg version="1.0" xmlns="http://www.w3.org/2000/svg"
 width="687.000000pt" height="526.000000pt" viewBox="0 0 687.000000 526.000000"
 preserveAspectRatio="xMidYMid meet">

<g transform="translate(0.000000,526.000000) scale(0.100000,-0.100000)"
fill="#000000" stroke="none">
<path d="M1260 2725 l0 -1425 1425 0 1425 0 0 440 0 440 -40 0 -40 0 -2 -397
-3 -398 -1340 0 -1340 0 -3 1343 -2 1342 1342 -2 1343 -3 2 -395 2 -395 38 0
38 0 3 438 2 437 -1425 0 -1425 0 0 -1425z"/>
<path d="M4530 3019 l0 -161 -22 16 c-43 31 -93 49 -150 54 -105 8 -201 -58
-257 -178 -23 -48 -26 -68 -26 -160 1 -125 18 -174 87 -243 53 -52 117 -77
202 -77 64 0 105 17 158 67 l26 25 12 -22 c15 -28 69 -60 102 -60 30 0 33 3
43 47 6 29 4 33 -20 39 -14 3 -30 14 -35 24 -6 11 -10 173 -10 404 l0 386 -55
0 -55 0 0 -161z m-107 -190 c21 -5 53 -24 72 -41 l35 -30 0 -164 0 -164 -41
-27 c-31 -20 -57 -28 -103 -31 -54 -3 -66 0 -107 26 -67 43 -94 103 -94 207 1
116 44 189 132 220 47 17 58 18 106 4z"/>
<path d="M5230 3160 c-28 -28 -26 -81 3 -108 72 -67 172 34 102 103 -30 31
-77 33 -105 5z"/>
<path d="M5585 3086 c-2 -6 -9 -49 -14 -95 -6 -46 -14 -87 -17 -90 -7 -7 -13
-8 -64 -10 l-40 -1 0 -45 0 -45 54 0 54 0 4 -197 c3 -197 3 -198 32 -247 38
-66 93 -90 185 -83 36 2 79 10 94 18 26 12 28 17 23 48 -7 46 -17 54 -50 41
-49 -18 -112 -12 -143 14 l-28 24 -3 191 -3 191 85 0 86 0 0 45 0 45 -85 0
-84 0 -3 102 -3 102 -38 1 c-22 1 -41 -3 -42 -9z"/>
<path d="M2469 2907 c-24 -13 -58 -42 -76 -65 l-32 -42 -3 57 -3 58 -52 3 -53
3 0 -320 0 -321 55 0 55 0 0 173 c0 191 11 253 56 306 31 37 102 65 148 58 33
-5 34 -4 45 38 18 73 17 75 -42 75 -37 0 -68 -7 -98 -23z"/>
<path d="M2835 2906 c-116 -53 -183 -185 -172 -335 10 -139 57 -222 153 -271
43 -22 62 -25 154 -25 123 0 216 24 205 54 -4 9 -9 28 -12 44 -6 32 -7 32 -63
12 -64 -23 -184 -20 -229 6 -42 23 -75 68 -89 122 l-10 37 224 0 224 0 0 67
c0 108 -25 179 -84 238 -58 57 -103 75 -192 75 -41 0 -75 -7 -109 -24z m166
-76 c60 -17 119 -98 119 -165 l0 -25 -175 0 c-96 0 -175 4 -175 8 0 36 35 113
63 140 49 48 101 61 168 42z"/>
<path d="M3527 2916 c-81 -30 -152 -107 -183 -198 -25 -78 -16 -227 19 -294
51 -99 144 -154 262 -154 50 0 69 5 106 28 24 16 50 36 58 45 18 22 28 21 36
-4 9 -27 63 -59 101 -59 27 0 32 4 38 31 9 47 8 49 -23 60 -39 14 -41 28 -41
311 l0 239 -47 -3 c-40 -3 -48 -6 -51 -24 l-3 -22 -46 26 c-56 31 -167 40
-226 18z m216 -104 l47 -21 0 -180 0 -181 -40 -26 c-49 -33 -125 -42 -182 -23
-77 25 -128 114 -128 225 0 68 19 120 59 165 63 70 146 84 244 41z"/>
<path d="M5230 2600 l0 -320 55 0 55 0 0 320 0 320 -55 0 -55 0 0 -320z"/>
</g>
</svg>
